[b]Ronal The Barbarian 2011 English Dubbed 720p BluRay x264-Insane098[/b]

[b]Plot:[/b]
Fantasy comedy about young Ronal who lives in a barbarian village. Ronal is weak, skinny and doesn't have the usual barbarian traits like everyone else and therefore is considered a laughing stock. But one day his village gets attacked, his tribe kidnapped by the evil Volcazar. Ronal decides to save his tribe and defeat Volcazar and on his way he must survive many dangerous situations...

[IMG]http://i1186.photobucket.com/albums/z372/Insane098/RonalTheBarbarian2011EnglishDubbed720pBluRayx264-Insane098mp4_thumbs_20121121_124607.jpg[/IMG]

[b]IMBD:[/b] [url]http://www.imdb.com/title/tt1629374/[/url]


[b]Media Info:[/b]
[code]Complete name                            : Ronal The Barbarian 2011 English Dubbed 720p BluRay x264-Insane098.mp4
Format                                   : MPEG-4
Format profile                           : Base Media
Codec ID                                 : isom
File size                                : 1.51 GiB
Duration                                 : 1h 25mn
Overall bit rate                         : 2 518 Kbps
Writing application                      : Lavf54.25.105

Video
ID                                       : 1
Format                                   : AVC
Format/Info                              : Advanced Video Codec
Format profile                           : Baseline@L3.0
Format settings, CABAC                   : No
Format settings, ReFrames                : 2 frames
Codec ID                                 : avc1
Codec ID/Info                            : Advanced Video Coding
Duration                                 : 1h 25mn
Bit rate                                 : 2 000 Kbps
Width                                    : 1 280 pixels
Height                                   : 720 pixels
Display aspect ratio                     : 16:9
Frame rate mode                          : Constant
Frame rate                               : 25.000 fps
Color space                              : YUV
Chroma subsampling                       : 4:2:0
Bit depth                                : 8 bits
Scan type                                : Progressive
Bits/(Pixel*Frame)                       : 0.087
Stream size                              : 1.24 GiB (82%)
Writing library                          : x264 core 125 r2208 d9d2288

Audio
ID                                       : 2
Format                                   : AC-3
Format/Info                              : Audio Coding 3
Mode extension                           : CM (complete main)
Format settings, Endianness              : Big
Codec ID                                 : ac-3
Duration                                 : 1h 25mn
Bit rate mode                            : Constant
Bit rate                                 : 448 Kbps
Channel(s)                               : 6 channels
Channel positions                        : Front: L C R, Side: L R, LFE
Sampling rate                            : 48.0 KHz
Bit depth                                : 16 bits
Compression mode                         : Lossy
Stream size                              : 274 MiB (18%)[/code]